<svg version="1.2" xmlns="http://www.w3.org/2000/svg" viewBox="0 0 40 40" width="30" height="30">
	<title>facebook-svg</title>
	<defs>
		<linearGradient id="g1" x1="20" y1="38.6" x2="20" y2="0" gradientUnits="userSpaceOnUse">
			<stop offset="0" stop-color="#0062e0"/>
			<stop offset="1" stop-color="#19afff"/>
		</linearGradient>
	</defs>
	<style>
		.s0 { fill: url(#g1) } 
		.s1 { fill: #ffffff } 
	</style>
	<path id="Layer" class="s0" d="m16.7 39.8c-9.5-1.7-16.7-9.9-16.7-19.8 0-11 9-20 20-20 11 0 20 9 20 20 0 9.9-7.2 18.1-16.7 19.8l-1.1-0.9h-4.4z"/>
	<path id="Layer" class="s1" d="m23.4 25.6v14.1q-1.6 0.3-3.3 0.3-1.6 0-3.3-0.3v-14.1h-5v-5.6h5v-4.4c0-5 3.2-7.8 7.8-7.8 1.4 0 3 0.2 4.4 0.4v5.1h-2.6c-2.4 0-3 1.2-3 2.8v3.9h5.3l-0.9 5.6z"/>
</svg>